<svg width="13" height="13" viewBox="0 0 13 13" fill="none" xmlns="http://www.w3.org/2000/svg">
<path d="M11.6983 5.55683H3.42654L7.12522 1.85814C7.2381 1.68818 7.28799 1.48409 7.26625 1.28121C7.2445 1.07834 7.1525 0.889458 7.00616 0.747274C6.85983 0.60509 6.66838 0.518556 6.46496 0.502659C6.26154 0.486762 6.05897 0.542502 5.89233 0.660226L0.69843 5.85412C0.538662 6.00552 0.441867 6.2116 0.427368 6.43122C0.427594 6.54843 0.451382 6.6644 0.49732 6.77223C0.53994 6.87646 0.60229 6.97147 0.680942 7.05204L5.87484 12.2459C6.03949 12.4094 6.26234 12.5008 6.49438 12.5C6.72641 12.4992 6.94861 12.4062 7.11211 12.2416C7.2756 12.0769 7.36699 11.8541 7.36617 11.622C7.36535 11.39 7.27238 11.1678 7.10773 11.0043L3.42654 7.30561H11.6983C11.9302 7.30561 12.1526 7.21349 12.3166 7.04951C12.4806 6.88553 12.5727 6.66313 12.5727 6.43122C12.5727 6.19932 12.4806 5.97691 12.3166 5.81293C12.1526 5.64895 11.9302 5.55683 11.6983 5.55683Z" fill="#171717"/>
</svg>
