<svg width="13" height="13" viewBox="0 0 13 13" fill="none" xmlns="http://www.w3.org/2000/svg">
<path d="M1.3017 5.55683H9.57346L5.87478 1.85814C5.7619 1.68818 5.71201 1.48409 5.73375 1.28121C5.7555 1.07834 5.8475 0.889458 5.99384 0.747274C6.14017 0.60509 6.33162 0.518556 6.53504 0.502659C6.73846 0.486762 6.94103 0.542502 7.10767 0.660226L12.3016 5.85412C12.4613 6.00552 12.5581 6.2116 12.5726 6.43122C12.5724 6.54843 12.5486 6.6644 12.5027 6.77223C12.4601 6.87646 12.3977 6.97147 12.3191 7.05204L7.12516 12.2459C6.96051 12.4094 6.73766 12.5008 6.50562 12.5C6.27359 12.4992 6.05139 12.4062 5.88789 12.2416C5.7244 12.0769 5.63301 11.8541 5.63383 11.622C5.63465 11.39 5.72762 11.1678 5.89227 11.0043L9.57346 7.30561H1.3017C1.0698 7.30561 0.847393 7.21349 0.683413 7.04951C0.519432 6.88553 0.42731 6.66313 0.42731 6.43122C0.42731 6.19932 0.519432 5.97691 0.683413 5.81293C0.847393 5.64895 1.0698 5.55683 1.3017 5.55683Z" fill="#171717"/>
</svg>
